<?xml version="1.0" encoding="UTF-8" standalone="no"?>
<!-- Created with Inkscape (http://www.inkscape.org/) -->

<svg
   xmlns:dc="http://purl.org/dc/elements/1.1/"
   xmlns:cc="http://creativecommons.org/ns#"
   xmlns:rdf="http://www.w3.org/1999/02/22-rdf-syntax-ns#"
   xmlns:svg="http://www.w3.org/2000/svg"
   xmlns="http://www.w3.org/2000/svg"
   xmlns:xlink="http://www.w3.org/1999/xlink"
   xmlns:sodipodi="http://sodipodi.sourceforge.net/DTD/sodipodi-0.dtd"
   xmlns:inkscape="http://www.inkscape.org/namespaces/inkscape"
   width="210mm"
   height="297mm"
   viewBox="0 0 210 297"
   version="1.1"
   id="svg8"
   inkscape:version="0.92.1 r"
   sodipodi:docname="logo.svg">
  <defs
     id="defs2">
    <linearGradient
       inkscape:collect="always"
       id="linearGradient4751">
      <stop
         style="stop-color:#ffd200;stop-opacity:1;"
         offset="0"
         id="stop4747" />
      <stop
         style="stop-color:#ffaa00;stop-opacity:0.96460176"
         offset="1"
         id="stop4749" />
    </linearGradient>
    <linearGradient
       inkscape:collect="always"
       id="linearGradient4678">
      <stop
         style="stop-color:#f29104;stop-opacity:1;"
         offset="0"
         id="stop4674" />
      <stop
         style="stop-color:#ff3b04;stop-opacity:1"
         offset="1"
         id="stop4676" />
    </linearGradient>
    <linearGradient
       gradientTransform="matrix(0.26458333,0,0,0.26458333,-363.14111,-24.466977)"
       inkscape:collect="always"
       xlink:href="#linearGradient4751"
       id="linearGradient4753-3"
       x1="-171.0175"
       y1="968.62708"
       x2="-188.69995"
       y2="781.15228"
       gradientUnits="userSpaceOnUse" />
    <linearGradient
       gradientTransform="translate(-363.14111,-24.466977)"
       inkscape:collect="always"
       xlink:href="#linearGradient4678"
       id="linearGradient4682-5"
       x1="-38.480812"
       y1="162.96613"
       x2="-32.834454"
       y2="248.43639"
       gradientUnits="userSpaceOnUse" />
  </defs>
  <sodipodi:namedview
     id="base"
     pagecolor="#ffffff"
     bordercolor="#666666"
     borderopacity="1.0"
     inkscape:pageopacity="0.0"
     inkscape:pageshadow="2"
     inkscape:zoom="0.21876116"
     inkscape:cx="-1379.0455"
     inkscape:cy="439.86866"
     inkscape:document-units="mm"
     inkscape:current-layer="layer1"
     showgrid="false"
     inkscape:window-width="1366"
     inkscape:window-height="681"
     inkscape:window-x="0"
     inkscape:window-y="0"
     inkscape:window-maximized="1" />
  <metadata
     id="metadata5">
    <rdf:RDF>
      <cc:Work
         rdf:about="">
        <dc:format>image/svg+xml</dc:format>
        <dc:type
           rdf:resource="http://purl.org/dc/dcmitype/StillImage" />
        <dc:title />
      </cc:Work>
    </rdf:RDF>
  </metadata>
  <g
     inkscape:label="Layer 1"
     inkscape:groupmode="layer"
     id="layer1">
    <rect
       style="fill:#f29104;fill-opacity:1;stroke:none;stroke-width:0.28215486;stroke-opacity:1"
       id="rect4664"
       width="242.47957"
       height="242.47957"
       x="-163.26859"
       y="35.16024"
       ry="55.030525"
       inkscape:export-xdpi="13.41"
       inkscape:export-ydpi="13.41" />
    <path
       id="path4508"
       d="m -87.633475,281.21894 v 0 c 0,-0.0529 0,-0.0529 0,0 z"
       class="st1"
       inkscape:connector-curvature="0"
       style="fill:#494545;stroke-width:0.26458332" />
    <text
       style="font-size:3.17499995px;font-family:MyriadPro-Regular;stroke-width:0.26458332"
       class="st6 st7"
       id="text4552"
       x="-104.32556"
       y="296.95673" />
    <path
       inkscape:connector-curvature="0"
       id="path4498"
       d="m -147.17172,203.11754 c 0.15932,-0.15933 0.30074,-0.75377 0.31427,-1.32098 0.028,-1.17436 -1.98174,-9.82648 -3.80411,-16.37712 -2.1483,-7.7222 -2.10102,-6.82894 -0.50197,-9.48349 0.77347,-1.28401 1.83268,-3.26961 2.3538,-4.41244 0.88201,-1.93425 0.92858,-2.27564 0.67366,-4.93889 -0.43216,-4.51512 -0.68214,-11.14318 -0.68002,-18.03046 0.002,-7.09949 0.0211,-7.17163 2.83633,-10.82037 2.86034,-3.70719 10.15795,-10.52269 11.26704,-10.52269 0.69336,0 0.64953,-0.57724 -0.0646,-0.85129 -0.87123,-0.33433 -10.70569,-0.60802 -10.7574,-0.29939 -0.0248,0.14781 -0.0833,0.64302 -0.13004,1.10048 -0.0468,0.45745 -0.51016,1.17183 -1.02976,1.5875 -0.91983,0.73584 -0.93412,0.80509 -0.54213,2.6272 0.22144,1.0293 0.29942,2.2993 0.17329,2.82223 -0.91881,3.80948 -0.80958,3.64419 -2.23574,3.38329 -0.71823,-0.13139 -1.43283,-0.45465 -1.58799,-0.71834 -0.43247,-0.73498 -1.0473,-0.54379 -1.95834,0.60898 -0.57687,0.72992 -0.76451,1.30769 -0.61637,1.8979 0.15917,0.63419 -0.0546,1.14147 -0.84636,2.00832 l -1.05932,1.15981 v -1.17069 c 0,-0.64388 0.28961,-1.59207 0.64356,-2.10709 0.35396,-0.51502 1.00697,-1.65078 1.45113,-2.52391 0.44416,-0.87312 1.35748,-2.4162 2.02959,-3.42906 0.67212,-1.01286 1.12447,-1.99943 1.00522,-2.19238 -0.11925,-0.19295 0.16433,-1.10078 0.63017,-2.01741 0.80967,-1.59316 0.8652,-1.63257 1.26024,-0.89442 0.60442,1.12936 1.01185,0.95176 1.49183,-0.65027 0.52434,-1.75007 0.0854,-2.43875 -1.18545,-1.85974 -0.67415,0.30716 -0.90763,0.23381 -1.42068,-0.44635 -0.78777,-1.04438 -0.78617,-2.16935 0.003,-2.40684 1.07237,-0.32253 5.02386,-0.30819 10.49514,0.0381 6.1639,0.39013 6.1996,0.37489 6.88776,-2.93996 0.3691,-1.77794 0.4803,-1.9412 1.19933,-1.76074 0.43588,0.1094 1.92137,0.30383 3.30108,0.43206 l 2.50856,0.23314 0.22707,-1.01903 c 0.53525,-2.40212 0.98541,-3.37193 1.81853,-3.91781 1.15811,-0.75883 3.68679,-0.62694 5.15604,0.26891 0.61964,0.37782 1.46781,0.68755 1.88481,0.68827 0.43027,7.1e-4 1.76324,0.91215 3.08205,2.10731 l 2.32388,2.10599 2.91517,-0.20749 c 5.10229,-0.36317 5.32414,-0.44944 5.79719,-2.25411 l 0.41259,-1.57399 0.0284,1.25236 c 0.0156,0.6888 0.21889,1.44286 0.45172,1.6757 0.6413,0.6413 1.860407,0.5077 2.575277,-0.28223 0.35119,-0.38805 1.06412,-0.70555 1.5843,-0.70555 0.66025,0 1.33603,-0.4347 2.23838,-1.43987 1.4175,-1.579 1.6218,-2.80991 0.90279,-5.4393 -0.50149,-1.8339 -1.19692,-2.58063 -2.65879,-2.85488 -2.28357,-0.4284 -3.971227,1.70345 -4.667607,5.89609 -0.17336,1.04372 -0.33376,1.46893 -0.35644,0.9449 -0.0973,-2.24916 0.74179,-4.67384 2.081567,-6.01458 2.4519,-2.45367 5.2105,-1.31751 6.02596,2.48185 0.59779,2.7852 0.82801,3.1356 2.23333,3.39924 2.34786,0.44046 3.46734,3.32238 2.01365,5.18383 -1.58955,2.03543 -1.30919,3.04338 1.5912,5.72061 1.81068,1.67136 1.82527,1.67702 4.87041,1.89192 2.76936,0.19544 3.20124,0.32775 4.62944,1.41826 0.86633,0.66149 1.48239,1.35278 1.36904,1.53619 -0.12038,0.19478 -1.44402,0.24464 -3.18236,0.1199 -2.84129,-0.20389 -2.97627,-0.18054 -2.97627,0.51493 0,1.50156 4.12747,4.63258 6.10691,4.63258 1.57608,0 2.99078,-0.71334 3.21913,-1.62319 0.12027,-0.47917 0.61111,-1.02042 1.09076,-1.20278 1.05122,-0.39968 1.19289,-2.00092 0.29787,-3.36689 -0.37847,-0.57762 -0.5049,-1.26487 -0.37088,-2.01606 0.7293,-4.08773 1.47335,-6.63851 2.35385,-8.06951 0.5559,-0.90345 1.06165,-2.16806 1.1239,-2.81025 0.16498,-1.70196 2.29671,-3.10873 4.73485,-3.12461 0.98969,-0.006 2.30218,-0.18697 2.91664,-0.40118 1.44402,-0.50339 2.43035,-0.23547 4.13301,1.12266 1.83574,1.46427 4.27175,2.67667 7.14207,3.5546 1.2943,0.39588 3.0958,1.12015 4.00332,1.60949 l 1.65005,0.8897 6.11107,-0.45046 c 3.36108,-0.24775 6.50794,-0.55971 6.99301,-0.69323 0.89173,-0.24547 0.89936,-0.28382 0.49074,-2.4683 -0.13948,-0.7456 0.0416,-0.97405 1.17144,-1.47776 0.73504,-0.32771 1.77718,-0.70315 2.31587,-0.83433 1.2153,-0.29594 1.66639,-1.10098 1.66639,-2.9739 0,-2.95769 1.92569,-4.94456 4.792305,-4.94456 1.552473,0 1.805665,0.12981 3.224182,1.65306 l 1.539402,1.65306 3.77692,-0.93892 c 2.5211263,-0.62674 5.5949953,-1.06265 9.2449723,-1.31104 6.339802,-0.43145 6.561964,-0.47959 6.82322,-1.47864 0.1634,-0.62483 0.286449,-0.67734 0.728194,-0.31072 0.292364,0.24264 0.697272,0.33875 0.899802,0.21358 0.208904,-0.12911 0.368229,0.0777 0.368229,0.47798 0,1.7893 1.752675,1.18921 1.791741,-0.61347 0.02766,-1.2767 0.0302,-1.27878 0.382175,-0.31503 0.194878,0.53358 0.520326,0.97014 0.7232164,0.97014 0.202889,0 1.196375,-0.86121 2.2077473,-1.91381 2.918778,-3.03773 5.29862,-3.03439 7.193556,0.0101 0.751938,1.2081 1.089134,2.29358 1.264115,4.06938 0.297604,3.02017 1.821029,5.35038 3.613309,5.52686 0.602086,0.0593 1.374056,0.41647 1.715488,0.79375 0.344019,0.38013 1.078587,0.68595 1.647635,0.68595 0.564766,0 1.333913,0.16434 1.709212,0.36519 1.468755,0.78606 0.363774,2.10426 -1.763889,2.10426 -1.47363,0 -1.444092,1.04651 0.065,2.30302 0.63059,0.52504 2.386182,2.14084 3.901313,3.59067 3.0928,2.9595 6.312056,4.68964 8.725938,4.68964 0.793129,0 1.768158,0.17453 2.16673,0.38784 0.58323,0.31213 0.920203,0.24328 1.72641,-0.35278 0.550954,-0.40734 1.139243,-0.74061 1.307303,-0.74061 0.168063,0 0.683503,-0.40229 1.14542,-0.89398 0.734095,-0.78141 0.790691,-1.02421 0.449456,-1.92825 -0.353892,-0.93756 -0.225464,-1.32403 1.373495,-4.1331 0.970135,-1.70436 2.224303,-3.58265 2.787036,-4.17397 1.205816,-1.26707 1.275373,-1.76367 0.318749,-2.27564 -0.387424,-0.20734 -1.02272,-1.00093 -1.411771,-1.76354 -0.698024,-1.36824 -0.698345,-1.39138 -0.02434,-1.75209 0.942393,-0.50436 1.566061,-0.45984 2.975744,0.21239 1.151047,0.54889 1.262429,0.54235 2.216827,-0.13032 3.619906,-2.55134 6.099384,-2.86233 8.147626,-1.0219 0.728162,0.65429 2.276433,1.67179 3.4406,2.26112 1.894537,0.95906 3.334946,2.19015 4.741256,4.05225 0.630474,0.83482 1.092302,3.35258 0.860344,4.69034 -0.284977,1.64349 -1.755923,2.24282 -5.777989,2.35417 l -3.351389,0.0928 -0.599334,1.23472 c -0.329636,0.67909 -0.873552,2.63994 -1.208709,4.35742 -0.481676,2.46832 -0.762681,3.19321 -1.340944,3.45915 -0.719448,0.33088 -2.491779,3.62755 -3.519184,6.54596 -0.751569,2.13487 -1.983077,3.67826 -2.846137,3.56692 -0.975114,-0.1258 -1.610406,0.32546 -1.36361,0.9686 0.422899,1.10206 -3.550811,4.0325 -5.468127,4.0325 -0.710815,0 -1.735536,0.44593 -2.827595,1.2305 -1.334245,0.95856 -2.016609,1.21599 -3.087621,1.16486 -0.756172,-0.0361 -1.533606,-0.005 -1.727634,0.0698 -0.194028,0.0745 -1.344849,0.011 -2.557378,-0.14113 -2.31593,-0.2905 -2.744872,-0.57207 -5.300483,-3.47939 -1.743054,-1.98293 -2.525561,-1.81925 -6.420168,1.3429 -1.799806,1.46132 -3.570097,2.81628 -3.933977,3.01102 -0.534674,0.28615 -0.661607,0.76224 -0.661607,2.48153 0,1.17009 -0.17539,2.45517 -0.389759,2.85572 -0.214366,0.40054 -1.944046,2.25542 -3.84373,4.12194 -3.081662,3.02787 -3.515819,3.61156 -4.027738,5.41499 -0.802182,2.826 -1.2637743,5.41281 -1.2637743,7.08234 0,0.93704 -0.370921,2.07987 -1.0866654,3.3481 -1.893429,3.35497 -2.906077,10.59264 -1.938105,13.85216 0.305428,1.02849 0.3089087,2.17169 0.555326,2.97918 0.2464173,0.80749 0.29809,1.38924 0.80761,1.86791 0.7694934,0.7229 1.0566934,0.75124 6.0854187,0.6004 -8.111133,53.0454 -120.979842,62.34504 -161.327412,8.34803 z m 13.89666,-0.53424 c 0.97394,-0.33838 2.07767,-0.39927 3.83671,-0.21166 1.3582,0.14485 2.60343,0.18128 2.76717,0.081 0.49401,-0.30269 9.93261,-0.86197 15.59023,-0.92379 l 5.30461,-0.058 1.12324,-1.23472 c 0.61813,-0.67948 1.12838,-1.63133 1.13465,-2.11667 0.006,-0.48507 0.34378,-2.54882 0.75002,-4.58611 0.54225,-2.71947 0.71655,-4.78265 0.65565,-7.76111 -0.0853,-4.17374 -0.0806,-5.06823 0.0862,-16.30679 0.0814,-5.482 0.009,-6.69157 -0.4277,-7.11206 -0.54792,-0.52803 -1.0262,-0.67001 -9.69797,-2.87886 -5.16161,-1.31475 -5.88973,-1.56304 -10.185,-3.47301 -2.37868,-1.05772 -4.11143,-1.14257 -5.85421,-0.28665 -0.93092,0.4572 -1.53364,1.20879 -2.52672,3.1508 -1.84753,3.61295 -5.52082,7.90626 -7.80505,9.12246 -1.21757,0.64828 -3.55859,5.18665 -4.07831,7.90633 -0.20393,1.06715 -0.47108,4.32634 -0.59367,7.24263 -0.20187,4.80202 -0.14919,5.56765 0.55828,8.11389 0.42965,1.54634 0.88911,3.60529 1.02103,4.57542 0.13191,0.97014 0.49677,2.24014 0.81079,2.82223 0.31403,0.58208 0.65102,1.32976 0.74887,1.66152 0.0978,0.33175 0.84416,1.08581 1.65846,1.67569 1.64502,1.19165 2.96829,1.34599 5.1227,0.59748 z m 52.167277,-0.93582 c 1.29326,-0.30766 8.78106,-0.8412 11.28889,-0.8044 0.58208,0.009 2.56646,0.13158 4.40972,0.27342 2.62475,0.20197 4.44748,0.0962 8.40675,-0.48764 2.819,-0.41573 6.81424,-0.74553 9.03138,-0.74553 4.11883,0 6.19798,-0.42273 6.19798,-1.26016 0,-1.47265 -2.42116,-9.53605 -4.57766,-15.24538 -1.36284,-3.6081 -2.47789,-6.89178 -2.47789,-7.29707 0,-0.40527 0.5292,-2.00205 1.17602,-3.54838 0.6468,-1.54633 1.62743,-4.44221 2.17917,-6.43528 1.08428,-3.9168 1.05771,-5.13637 -0.24762,-11.36929 -0.42314,-2.02048 -0.40945,-2.62985 0.11526,-5.12643 0.32752,-1.55835 0.67092,-4.5746 0.76311,-6.70278 0.22213,-5.12776 1.14889,-7.74755 4.00879,-11.33203 0.64305,-0.80598 1.32587,-1.87754 1.51738,-2.38125 0.21661,-0.56974 0.61814,-0.91584 1.06249,-0.91584 0.39286,0 0.71429,-0.1436 0.71429,-0.3191 0,-0.17551 0.86534,-0.80747 1.92297,-1.40437 1.87479,-1.05806 3.88802,-3.36609 3.49328,-4.0048 -0.1768,-0.28606 -2.19394,-0.12464 -3.69663,0.29581 -0.31538,0.0883 -0.94817,0.94978 -1.4062,1.91451 -0.45802,0.96473 -0.93449,1.75406 -1.05882,1.75406 -0.12433,0 -0.56235,-0.78175 -0.97338,-1.73722 -0.51611,-1.19972 -1.09207,-1.9092 -1.86153,-2.29306 -1.75362,-0.87481 -2.17794,-0.74485 -1.92868,0.5907 0.32493,1.74091 -0.82788,3.43934 -2.33513,3.44036 -3.82146,0.002 -13.08843,0.38369 -13.35634,0.54927 -0.17544,0.10843 -0.31899,0.55698 -0.31899,0.99677 0,0.4398 -0.39688,1.17248 -0.88194,1.62818 -0.94983,0.89231 -1.12875,2.08383 -0.47106,3.13695 0.31984,0.51216 0.28208,1.19504 -0.17044,3.08202 -0.31972,1.33325 -0.81473,3.53533 -1.10001,4.89353 -0.59042,2.81095 -1.92841,6.87133 -2.85421,8.66163 -1.11478,2.15575 -3.42665,4.94481 -4.99086,6.02101 -0.83926,0.57743 -1.5262,1.24068 -1.52653,1.47389 -3.5e-4,0.28709 -0.74906,0.42403 -2.31824,0.42403 -2.1876,0 -2.37065,-0.0645 -3.26259,-1.14971 -0.75602,-0.91984 -1.20434,-1.14908 -2.24227,-1.14653 -1.85912,0.005 -2.89924,1.37029 -2.59397,3.40601 0.12444,0.8298 0.0712,1.56603 -0.12176,1.68532 -0.1885,0.1165 -0.60277,0.99472 -0.92059,1.95159 -0.31783,0.95688 -0.92528,2.17547 -1.34989,2.70798 -1.25429,1.573 -2.24448,3.2667 -4.13326,7.06984 -1.41965,2.85853 -1.84228,4.12476 -2.07786,6.22545 -0.16266,1.45038 -0.61823,3.24873 -1.0124,3.99633 -1.36393,2.58693 -1.83664,4.37928 -2.05732,7.80071 -0.1713,2.65573 -0.0915,3.87161 0.35122,5.35245 0.31507,1.05387 0.57287,2.36105 0.57287,2.90485 0,0.58737 0.40592,1.44305 0.99995,2.10789 0.87804,0.9827 1.29741,1.14931 3.43958,1.36659 3.63078,0.36826 5.10888,0.36717 6.67297,-0.005 z m -15.61713,-6.35435 c 0.14183,-2.03504 0.41964,-4.76236 0.61736,-6.06071 0.6345,-4.16657 0.39142,-8.58612 -0.45671,-8.30342 -0.20547,0.0685 -0.84528,1.22593 -1.42179,2.57207 -1.34098,3.13116 -1.7351,8.80305 -0.80255,11.54981 0.3141,0.92516 0.57109,2.24382 0.57109,2.93037 0,0.99864 0.12346,1.22463 0.61736,1.13011 0.52079,-0.0997 0.6577,-0.69695 0.87524,-3.81823 z m 65.3588,2.81328 c 2.65593,-0.37841 6.74842,-1.60669 7.06614,-2.12076 0.4284,-0.69317 -2.82314,-5.53592 -8.98931,-13.38843 -1.75214,-2.23132 -3.33358,-4.39207 -3.51431,-4.80165 -0.22472,-0.50929 -0.12209,-1.68024 0.32466,-3.70417 1.45264,-6.58089 1.72743,-12.66085 0.57221,-12.66085 -0.5069,0 -1.7104,1.22177 -2.25878,2.29306 -0.19863,0.38805 -1.11074,2.92763 -2.02691,5.64351 -2.87454,8.52126 -3.08695,13.65015 -0.86204,20.81482 0.83496,2.68873 3.08878,7.60484 3.67696,8.02029 0.51184,0.36154 3.08966,0.32045 6.01138,-0.0958 z m 22.5383293,-2.07235 c 1.142471,-0.19961 2.3687771,-0.6268 2.725127,-0.94929 0.9419921,-0.85249 2.076821,-3.36944 2.076821,-4.6062 0,-0.58747 0.322978,-2.00579 0.717733,-3.15182 1.306502,-3.79301 2.434171,-8.38361 2.998269,-12.20562 0.50247198,-3.40445 0.74330698,-4.10902 2.47201,-7.23195 2.872444,-5.1891 3.726656,-7.56434 4.035478,-11.22113 0.147475,-1.74625 0.192409,-3.37344 0.09986,-3.61597 -0.09255,-0.24254 -0.642796,-0.44097 -1.222766,-0.44097 -0.579971,0 -1.92549,-0.25321 -2.990046,-0.56269 -1.064557,-0.30947 -2.26720402,-0.47595 -2.672553,-0.36995 -0.405349,0.106 -2.336906,-0.0348 -4.29235,-0.3128 -1.955444,-0.27804 -4.357042,-0.50844 -5.3368833,-0.51199 -0.97984,-0.004 -1.932339,-0.15553 -2.116666,-0.33773 -0.184326,-0.1822 -1.915999,-0.97595 -3.848167,-1.76389 -3.593204,-1.46532 -6.23115,-1.85102 -6.782326,-0.99165 -0.15556,0.24254 -0.28399,1.47285 -0.28541,2.73403 -0.002,1.81731 -0.28634,3.02496 -1.37034,5.82083 -0.75228,1.94028 -1.89349,4.21603 -2.53602,5.05723 -0.88156,1.15413 -1.22228,2.01984 -1.3884,3.52778 -0.12108,1.09908 -0.52018,3.60361 -0.88689,5.56562 -1.15771,6.19425 -0.20685,10.99834 3.37029,17.02781 1.94351,3.27589 5.355885,7.35413 6.805639,8.13364 1.83871,0.98864 6.13754,1.15631 10.4275933,0.40671 z m 11.000063,-2.05848 c 0.378841,-0.57818 0.666295,-1.75175 0.712876,-2.91041 0.04293,-1.06786 0.328387,-3.05281 0.634351,-4.41101 0.71307,-3.16537 0.777374,-9.70139 0.09545,-9.70139 -1.481406,0 -4.045498,7.83711 -4.114279,12.57523 -0.06222,4.28633 -0.0676486,4.23879 0.55563198,4.86207 0.80177743,0.80178 1.39521202,0.68553 2.11597202,-0.41449 z M -95.138153,176.05097 c 0.67616,-1.91678 1.84728,-7.50293 1.854,-8.84343 0.003,-0.60619 0.24366,-1.77709 0.5347,-2.60199 0.66352,-1.88064 0.66734,-2.46944 0.016,-2.46944 -0.31769,0 -0.59918,0.50395 -0.73894,1.32291 -0.12417,0.72761 -0.59561,2.43417 -1.04764,3.79236 -1.6007,4.80956 -2.45961,10.64109 -1.52122,10.3283 0.22679,-0.0756 0.63319,-0.76352 0.90312,-1.52871 z"
       style="fill:#ffffff;fill-opacity:1;stroke-width:0.35277781;"
       sodipodi:nodetypes="ccscccccsccccccccccccscccsccccccsscccccccccccccccsccccccssccssccsscccccccccsccsccccsssccccccsccscscccscscssccssccsccccccscccccccccsscscccscsccsssscccccccccccccccsccccccsccccccccccsscsccsssccssccccscccccscccssccsscccccscccsscccccccsssccccsccscscccccsscscscscsccccccccccsccccssssscccccsscccc" />
    <path
       style="fill:#ffd200;fill-opacity:1;stroke:none;stroke-width:0.49999997;stroke-opacity:1"
       d="M -72.208984 726.29297 C -269.78938 726.00554 -487.44358 747.91636 -617.07812 787.26562 L -617.07812 841.35742 C -617.07812 956.58355 -524.31402 1049.3477 -409.08789 1049.3477 L 91.390625 1049.3477 C 206.61675 1049.3477 299.38086 956.58355 299.38086 841.35742 L 299.38086 768.71875 C 220.48192 739.93484 80.117531 726.51456 -72.208984 726.29297 z "
       transform="scale(0.26458333)"
       id="rect4684" />
    <rect
       style="fill:url(#linearGradient4682-5);fill-opacity:1;stroke:none;stroke-width:0.28215486;stroke-opacity:1"
       id="rect4664-6"
       width="242.47958"
       height="242.47958"
       x="-526.40973"
       y="10.693267"
       ry="55.030529"
       inkscape:export-xdpi="53.630001"
       inkscape:export-ydpi="53.630001" />
    <path
       id="path4508-2"
       d="m -450.77458,256.75196 v 0 c 0,-0.0529 0,-0.0529 0,0 z"
       class="st1"
       inkscape:connector-curvature="0"
       style="fill:#494545;stroke-width:0.26458332" />
    <path
       inkscape:connector-curvature="0"
       id="path4498-9"
       d="m -510.31283,178.65056 c 0.15932,-0.15933 0.30074,-0.75377 0.31427,-1.32098 0.028,-1.17435 -1.98174,-9.82647 -3.80411,-16.37711 -2.1483,-7.7222 -2.10102,-6.82894 -0.50197,-9.48349 0.77347,-1.28401 1.83268,-3.26961 2.3538,-4.41244 0.88201,-1.93425 0.92858,-2.27564 0.67366,-4.93889 -0.43216,-4.51512 -0.68214,-11.14318 -0.68002,-18.03046 0.002,-7.09949 0.0211,-7.17163 2.83633,-10.82037 2.86034,-3.70719 10.15795,-10.52269 11.26704,-10.52269 0.69336,0 0.64953,-0.57724 -0.0646,-0.85129 -0.87123,-0.33433 -10.70569,-0.60802 -10.7574,-0.29939 -0.0248,0.14781 -0.0833,0.64302 -0.13004,1.10048 -0.0468,0.45745 -0.51016,1.17183 -1.02976,1.5875 -0.91983,0.73584 -0.93412,0.80509 -0.54213,2.6272 0.22144,1.0293 0.29942,2.2993 0.17329,2.82223 -0.91881,3.80948 -0.80958,3.64419 -2.23574,3.38329 -0.71823,-0.13139 -1.43283,-0.45465 -1.58799,-0.71834 -0.43247,-0.73498 -1.0473,-0.54379 -1.95834,0.60898 -0.57687,0.72992 -0.76451,1.30769 -0.61637,1.8979 0.15917,0.63419 -0.0546,1.14147 -0.84636,2.00832 l -1.05932,1.15981 v -1.17069 c 0,-0.64388 0.28961,-1.59207 0.64356,-2.10709 0.35396,-0.51502 1.00697,-1.65078 1.45113,-2.52391 0.44416,-0.87312 1.35748,-2.4162 2.02959,-3.42906 0.67212,-1.01286 1.12447,-1.99943 1.00522,-2.19238 -0.11925,-0.19295 0.16433,-1.10078 0.63017,-2.01741 0.80967,-1.59316 0.8652,-1.63257 1.26024,-0.89442 0.60442,1.12936 1.01185,0.95176 1.49183,-0.65027 0.52434,-1.75007 0.0854,-2.43875 -1.18545,-1.85974 -0.67415,0.30716 -0.90763,0.23381 -1.42068,-0.44635 -0.78777,-1.044383 -0.78617,-2.169354 0.003,-2.406844 1.07237,-0.32253 5.02386,-0.30819 10.49514,0.0381 6.1639,0.390131 6.1996,0.374891 6.88776,-2.93996 0.3691,-1.777939 0.4803,-1.941201 1.19933,-1.760739 0.43588,0.1094 1.92137,0.303829 3.30108,0.432059 l 2.50856,0.233141 0.22707,-1.01903 c 0.53525,-2.40212 0.98541,-3.371929 1.81853,-3.91781 1.15811,-0.75883 3.68679,-0.62694 5.15604,0.26891 0.61964,0.377819 1.46781,0.687549 1.88481,0.688271 0.43027,7.94e-4 1.76324,0.912148 3.08205,2.107308 l 2.32388,2.105991 2.91517,-0.207492 c 5.10229,-0.363169 5.32414,-0.449439 5.79719,-2.254109 l 0.41259,-1.573988 0.0284,1.252358 c 0.0156,0.6888 0.21889,1.44286 0.45172,1.675701 0.6413,0.6413 1.86041,0.507698 2.57528,-0.282231 0.35119,-0.388048 1.06412,-0.705548 1.5843,-0.705548 0.66025,0 1.33603,-0.4347 2.23838,-1.439871 1.4175,-1.579002 1.6218,-2.809909 0.90279,-5.439301 -0.50149,-1.833899 -1.19692,-2.58063 -2.65879,-2.854878 -2.28357,-0.428401 -3.97123,1.703448 -4.66761,5.896088 -0.17336,1.043721 -0.33376,1.46893 -0.35644,0.944902 -0.0973,-2.249163 0.74179,-4.673841 2.08157,-6.01458 2.4519,-2.453672 5.2105,-1.317512 6.02596,2.48185 0.59779,2.7852 0.82801,3.135598 2.23333,3.399239 2.34786,0.44046 3.46734,3.322378 2.01365,5.183831 -1.58955,2.035429 -1.30919,3.04338 1.5912,5.720612 1.81068,1.67136 1.82527,1.67702 4.87041,1.89192 2.76936,0.19544 3.20124,0.32775 4.62944,1.41826 0.86633,0.66149 1.48239,1.35278 1.36904,1.53619 -0.12038,0.19478 -1.44402,0.24464 -3.18236,0.1199 -2.84129,-0.20389 -2.97627,-0.18054 -2.97627,0.51493 0,1.50156 4.12747,4.63258 6.10691,4.63258 1.57608,0 2.99078,-0.71334 3.21913,-1.62319 0.12027,-0.47917 0.61111,-1.02042 1.09076,-1.20278 1.05122,-0.39968 1.19289,-2.00092 0.29787,-3.36689 -0.37847,-0.57762 -0.5049,-1.26487 -0.37088,-2.01606 0.7293,-4.087734 1.47335,-6.638513 2.35385,-8.069515 0.5559,-0.903448 1.06165,-2.168059 1.1239,-2.810248 0.16498,-1.701961 2.29671,-3.108729 4.73485,-3.12461 0.98969,-0.006 2.30218,-0.18697 2.91664,-0.40118 1.44402,-0.50339 2.43035,-0.235471 4.13301,1.122659 1.83574,1.464271 4.27175,2.676671 7.14207,3.554601 1.2943,0.39588 3.0958,1.12015 4.00332,1.609489 l 1.65005,0.889701 6.11107,-0.450461 c 3.36108,-0.24775 6.50794,-0.55971 6.99301,-0.693229 0.89173,-0.24547 0.89936,-0.283821 0.49074,-2.468301 -0.13948,-0.745598 0.0416,-0.97405 1.17144,-1.477759 0.73504,-0.32771 1.77718,-0.703151 2.31587,-0.834331 1.2153,-0.295939 1.66639,-1.100979 1.66639,-2.973898 0,-2.95769 1.92569,-4.94456 4.79231,-4.94456 1.55247,0 1.80566,0.12981 3.22418,1.653058 l 1.5394,1.653061 3.77692,-0.938921 c 2.52113,-0.62674 5.595,-1.062649 9.24498,-1.31104 6.3398,-0.431451 6.56196,-0.479589 6.82321,-1.47864 0.16341,-0.624829 0.28646,-0.677338 0.7282,-0.310718 0.29236,0.242638 0.69727,0.338748 0.8998,0.213579 0.20891,-0.129111 0.36823,0.0777 0.36823,0.477981 0,1.789297 1.75267,1.189209 1.79174,-0.613471 0.0277,-1.2767 0.0302,-1.278779 0.38218,-0.315032 0.19487,0.533583 0.52032,0.970143 0.72321,0.970143 0.20289,0 1.19638,-0.861211 2.20775,-1.913811 2.91878,-3.037731 5.29862,-3.03439 7.19356,0.01011 0.75193,1.208101 1.08913,2.29358 1.26411,4.069382 0.29761,3.020168 1.82103,5.350378 3.61331,5.52686 0.60209,0.0593 1.37406,0.41647 1.71549,0.79375 0.34402,0.380129 1.07859,0.685948 1.64763,0.685948 0.56477,0 1.33392,0.164341 1.70922,0.365191 1.46875,0.786059 0.36377,2.104261 -1.76389,2.104261 -1.47363,0 -1.4441,1.046509 0.065,2.303018 0.63059,0.525041 2.38618,2.140841 3.90131,3.590671 3.0928,2.959502 6.31206,4.689642 8.72594,4.689642 0.79313,0 1.76815,0.17453 2.16673,0.38784 0.58323,0.31213 0.9202,0.24328 1.72641,-0.35278 0.55095,-0.40734 1.13924,-0.74061 1.3073,-0.74061 0.16806,0 0.6835,-0.40229 1.14542,-0.89398 0.7341,-0.78141 0.79069,-1.02421 0.44946,-1.928253 -0.3539,-0.937559 -0.22547,-1.324031 1.37349,-4.133099 0.97014,-1.704361 2.22431,-3.582651 2.78704,-4.173971 1.20581,-1.267068 1.27537,-1.76367 0.31875,-2.275639 -0.38743,-0.207341 -1.02272,-1.000929 -1.41178,-1.76354 -0.69802,-1.36824 -0.69834,-1.391381 -0.0243,-1.75209 0.9424,-0.504362 1.56606,-0.45984 2.97575,0.212389 1.15104,0.548892 1.26243,0.542351 2.21683,-0.13032 3.6199,-2.55134 6.09938,-2.862329 8.14762,-1.0219 0.72816,0.65429 2.27643,1.67179 3.4406,2.261121 1.89454,0.959059 3.33495,2.190149 4.74126,4.05225 0.63047,0.834821 1.0923,3.35258 0.86034,4.69034 -0.28498,1.643491 -1.75592,2.24282 -5.77799,2.35417 l -3.35139,0.0928 -0.59933,1.23472 c -0.32964,0.679092 -0.87355,2.639942 -1.20871,4.357422 -0.48168,2.46832 -0.76268,3.19321 -1.34094,3.45915 -0.71945,0.33088 -2.49178,3.62755 -3.51919,6.54596 -0.75157,2.13487 -1.98308,3.67826 -2.84614,3.56692 -0.97511,-0.1258 -1.6104,0.32546 -1.36361,0.9686 0.4229,1.10206 -3.55081,4.0325 -5.46812,4.0325 -0.71082,0 -1.73554,0.44593 -2.8276,1.2305 -1.33424,0.95856 -2.01661,1.21599 -3.08762,1.16486 -0.75617,-0.0361 -1.53361,-0.005 -1.72763,0.0698 -0.19403,0.0745 -1.34485,0.011 -2.55738,-0.14113 -2.31593,-0.2905 -2.74487,-0.57207 -5.30048,-3.47939 -1.74306,-1.98293 -2.52557,-1.81925 -6.42017,1.3429 -1.79981,1.46132 -3.5701,2.81628 -3.93398,3.01102 -0.53467,0.28615 -0.66161,0.76224 -0.66161,2.48153 0,1.17009 -0.17539,2.45517 -0.38976,2.85572 -0.21436,0.40054 -1.94404,2.25542 -3.84373,4.12194 -3.08166,3.02787 -3.51581,3.61156 -4.02773,5.41499 -0.80219,2.826 -1.26378,5.41281 -1.26378,7.08234 0,0.93704 -0.37092,2.07987 -1.08666,3.3481 -1.89343,3.35497 -2.90608,10.59264 -1.93811,13.85216 0.30543,1.02849 0.30891,2.17169 0.55533,2.97918 0.24641,0.80749 0.29809,1.38924 0.80761,1.86791 0.76949,0.7229 1.05669,0.75124 6.08542,0.6004 -8.11113,53.04538 -120.97985,62.34502 -161.32742,8.34801 z m 13.89666,-0.53424 c 0.97394,-0.33838 2.07767,-0.39927 3.83671,-0.21166 1.3582,0.14485 2.60343,0.18128 2.76717,0.081 0.49401,-0.30269 9.93261,-0.86197 15.59023,-0.92379 l 5.30461,-0.058 1.12324,-1.23471 c 0.61813,-0.67948 1.12838,-1.63133 1.13465,-2.11667 0.006,-0.48507 0.34378,-2.54882 0.75002,-4.58611 0.54225,-2.71947 0.71655,-4.78265 0.65565,-7.76111 -0.0853,-4.17374 -0.0806,-5.06823 0.0862,-16.30679 0.0814,-5.482 0.009,-6.69157 -0.4277,-7.11206 -0.54792,-0.52803 -1.0262,-0.67001 -9.69797,-2.87886 -5.16161,-1.31475 -5.88973,-1.56304 -10.185,-3.47301 -2.37868,-1.05772 -4.11143,-1.14257 -5.85421,-0.28665 -0.93092,0.4572 -1.53364,1.20879 -2.52672,3.1508 -1.84753,3.61295 -5.52082,7.90626 -7.80505,9.12246 -1.21757,0.64828 -3.55859,5.18665 -4.07831,7.90633 -0.20393,1.06715 -0.47108,4.32634 -0.59367,7.24263 -0.20187,4.80202 -0.14919,5.56765 0.55828,8.11389 0.42965,1.54634 0.88911,3.60529 1.02103,4.57542 0.13191,0.97014 0.49677,2.24014 0.81079,2.82223 0.31403,0.58208 0.65102,1.32976 0.74887,1.66152 0.0978,0.33175 0.84416,1.0858 1.65846,1.67568 1.64502,1.19165 2.96829,1.34599 5.1227,0.59748 z m 52.16728,-0.93582 c 1.29326,-0.30766 8.78106,-0.8412 11.28889,-0.8044 0.58208,0.009 2.56646,0.13158 4.40972,0.27342 2.62475,0.20197 4.44748,0.0962 8.40675,-0.48763 2.819,-0.41573 6.81424,-0.74553 9.03138,-0.74553 4.11883,0 6.19798,-0.42273 6.19798,-1.26016 0,-1.47265 -2.42116,-9.53605 -4.57766,-15.24538 -1.36284,-3.6081 -2.47789,-6.89178 -2.47789,-7.29707 0,-0.40527 0.5292,-2.00205 1.17602,-3.54838 0.6468,-1.54633 1.62743,-4.44221 2.17917,-6.43528 1.08428,-3.9168 1.05771,-5.13637 -0.24762,-11.36929 -0.42314,-2.02048 -0.40945,-2.62985 0.11526,-5.12643 0.32752,-1.55835 0.67092,-4.5746 0.76311,-6.70278 0.22213,-5.12776 1.14889,-7.74755 4.00879,-11.33203 0.64305,-0.80598 1.32587,-1.87754 1.51738,-2.38125 0.21661,-0.56974 0.61814,-0.91584 1.06249,-0.91584 0.39286,0 0.71429,-0.1436 0.71429,-0.3191 0,-0.17551 0.86534,-0.80747 1.92297,-1.40437 1.87479,-1.05806 3.88802,-3.366093 3.49328,-4.004802 -0.1768,-0.286062 -2.19394,-0.12464 -3.69663,0.295809 -0.31538,0.0883 -0.94817,0.94978 -1.4062,1.914513 -0.45802,0.96473 -0.93449,1.75406 -1.05882,1.75406 -0.12433,0 -0.56235,-0.78175 -0.97338,-1.73722 -0.51611,-1.199724 -1.09207,-1.909204 -1.86153,-2.293062 -1.75362,-0.87481 -2.17794,-0.744852 -1.92868,0.590698 0.32493,1.740914 -0.82788,3.439344 -2.33513,3.440364 -3.82146,0.002 -13.08843,0.38369 -13.35634,0.54927 -0.17544,0.10843 -0.31899,0.55698 -0.31899,0.99677 0,0.4398 -0.39688,1.17248 -0.88194,1.62818 -0.94983,0.89231 -1.12875,2.08383 -0.47106,3.13695 0.31984,0.51216 0.28208,1.19504 -0.17044,3.08202 -0.31972,1.33325 -0.81473,3.53533 -1.10001,4.89353 -0.59042,2.81095 -1.92841,6.87133 -2.85421,8.66163 -1.11478,2.15575 -3.42665,4.94481 -4.99086,6.02101 -0.83926,0.57743 -1.5262,1.24068 -1.52653,1.47389 -2.7e-4,0.28709 -0.74906,0.42403 -2.31824,0.42403 -2.1876,0 -2.37065,-0.0645 -3.26259,-1.14971 -0.75602,-0.91984 -1.20434,-1.14908 -2.24227,-1.14653 -1.85912,0.005 -2.89924,1.37029 -2.59397,3.40601 0.12444,0.8298 0.0712,1.56603 -0.12176,1.68532 -0.1885,0.1165 -0.60277,0.99472 -0.92059,1.95159 -0.31783,0.95688 -0.92528,2.17547 -1.34989,2.70798 -1.25429,1.573 -2.24448,3.2667 -4.13326,7.06984 -1.41965,2.85853 -1.84228,4.12476 -2.07786,6.22545 -0.16266,1.45038 -0.61823,3.24873 -1.0124,3.99633 -1.36393,2.58693 -1.83664,4.37928 -2.05732,7.80071 -0.1713,2.65573 -0.0915,3.87161 0.35122,5.35245 0.31507,1.05387 0.57287,2.36105 0.57287,2.90485 0,0.58737 0.40592,1.44305 0.99995,2.10789 0.87804,0.98269 1.29741,1.1493 3.43958,1.36658 3.63078,0.36826 5.10888,0.36717 6.67297,-0.005 z m -15.61713,-6.35434 c 0.14183,-2.03504 0.41964,-4.76236 0.61736,-6.06071 0.6345,-4.16657 0.39142,-8.58612 -0.45671,-8.30342 -0.20547,0.0685 -0.84528,1.22593 -1.42179,2.57207 -1.34098,3.13116 -1.7351,8.80305 -0.80255,11.54981 0.3141,0.92516 0.57109,2.24382 0.57109,2.93037 0,0.99864 0.12346,1.22463 0.61736,1.13011 0.52079,-0.0997 0.6577,-0.69695 0.87524,-3.81823 z m 65.3588,2.81328 c 2.65593,-0.37841 6.74842,-1.60669 7.06614,-2.12076 0.4284,-0.69317 -2.82314,-5.53592 -8.98931,-13.38843 -1.75214,-2.23132 -3.33358,-4.39207 -3.51431,-4.80165 -0.22472,-0.50929 -0.12209,-1.68024 0.32466,-3.70417 1.45264,-6.58089 1.72743,-12.66085 0.57221,-12.66085 -0.5069,0 -1.7104,1.22177 -2.25878,2.29306 -0.19863,0.38805 -1.11074,2.92763 -2.02691,5.64351 -2.87454,8.52126 -3.08695,13.65015 -0.86204,20.81482 0.83496,2.68873 3.08878,7.60484 3.67696,8.02029 0.51184,0.36154 3.08966,0.32045 6.01138,-0.0958 z m 22.53833,-2.07235 c 1.14247,-0.19961 2.36878,-0.6268 2.72513,-0.94929 0.94199,-0.85249 2.07682,-3.36944 2.07682,-4.6062 0,-0.58747 0.32298,-2.00579 0.71773,-3.15182 1.30651,-3.79301 2.43418,-8.38361 2.99827,-12.20562 0.50248,-3.40445 0.74331,-4.10902 2.47201,-7.23195 2.87245,-5.1891 3.72666,-7.56434 4.03548,-11.22113 0.14748,-1.74625 0.19241,-3.37344 0.0999,-3.61597 -0.0926,-0.24254 -0.64279,-0.44097 -1.22276,-0.44097 -0.57998,0 -1.9255,-0.25321 -2.99005,-0.56269 -1.06456,-0.30947 -2.26721,-0.47595 -2.67255,-0.36995 -0.40535,0.106 -2.33691,-0.0348 -4.29235,-0.3128 -1.95545,-0.27804 -4.35705,-0.50844 -5.33689,-0.51199 -0.97984,-0.004 -1.93234,-0.15553 -2.11666,-0.33773 -0.18433,-0.1822 -1.916,-0.97595 -3.84817,-1.76389 -3.5932,-1.46532 -6.23115,-1.85102 -6.78233,-0.99165 -0.15556,0.24254 -0.28399,1.47285 -0.28541,2.73403 -0.002,1.81731 -0.28634,3.02496 -1.37034,5.82083 -0.75228,1.94028 -1.89349,4.21603 -2.53602,5.05723 -0.88156,1.15413 -1.22228,2.01984 -1.3884,3.52778 -0.12108,1.09908 -0.52018,3.60361 -0.88689,5.56562 -1.15771,6.19425 -0.20685,10.99834 3.37029,17.02781 1.94351,3.27589 5.35589,7.35413 6.80564,8.13364 1.83871,0.98864 6.13754,1.15631 10.4276,0.40671 z m 11.00007,-2.05848 c 0.37884,-0.57818 0.66629,-1.75175 0.71287,-2.91041 0.0429,-1.06786 0.32839,-3.05281 0.63435,-4.41101 0.71307,-3.16537 0.77738,-9.70139 0.0954,-9.70139 -1.4814,0 -4.04549,7.83711 -4.11428,12.57523 -0.0622,4.28633 -0.0676,4.23879 0.55564,4.86207 0.80177,0.80178 1.39521,0.68553 2.11597,-0.41449 z M -458.27926,151.584 c 0.67616,-1.91678 1.84728,-7.50293 1.854,-8.84343 0.003,-0.60619 0.24366,-1.77709 0.5347,-2.60199 0.66352,-1.88064 0.66734,-2.46944 0.016,-2.46944 -0.31769,0 -0.59918,0.50395 -0.73894,1.32291 -0.12417,0.72761 -0.59561,2.43417 -1.04764,3.79236 -1.6007,4.80956 -2.45961,10.64109 -1.52122,10.3283 0.22679,-0.0756 0.63319,-0.76352 0.90312,-1.52871 z"
       style="fill:#ffffff;fill-opacity:1;stroke-width:0.35277781"
       sodipodi:nodetypes="ccscccccsccccccccccccscccsccccccsscccccccccccccccsccccccssccssccsscccccccccsccsccccsssccccccsccscscccscscssccssccsccccccscccccccccsscscccscsccsssscccccccccccccccsccccccsccccccccccsscsccsssccssccccscccccscccssccsscccccscccsscccccccsssccccsccscscccccsscscscscsccccccccccsccccssssscccccsscccc" />
    <path
       inkscape:connector-curvature="0"
       style="fill:url(#linearGradient4753-3);fill-opacity:1;stroke:none;stroke-width:0.13229166;stroke-opacity:1"
       d="m -382.2464,167.69804 c -52.27648,-0.076 -109.86416,5.72119 -144.16329,16.13234 v 14.31179 c 0,30.48691 24.54383,55.03076 55.03074,55.03076 h 132.41828 c 30.48691,0 55.03075,-24.54385 55.03075,-55.03076 v -19.21898 c -20.87534,-7.61573 -58.01342,-11.16652 -98.31648,-11.22515 z"
       id="rect4684-1" />
  </g>
  <style
     id="style4504"
     type="text/css">
	.st0{fill:#FFFFFF;}
	.st1{fill:#494545;}
	.st2{fill:url(#SVGID_1_);}
	.st3{fill:url(#SVGID_2_);}
	.st4{fill:url(#SVGID_3_);}
	.st5{fill:url(#SVGID_4_);}
	.st6{font-family:'MyriadPro-Regular';}
	.st7{font-size:12px;}
</style>
</svg>
